# xmcd
#
# Track frame offsets:
#	150
#	21393
#	32761
#	50065
#	65732
#	80871
#	107726
#	122675
#	138854
#	161479
#	176597
#	191906
#	211022
#	231124
#	248611
#	262714
#	280797
#
# Disc length: 3890 seconds
#
# Revision: 1
# Processed by: cddbd v1.5.1PL0 Copyright (c) Steve Scherf et al.
# Submitted via: audiograbber 1.81.03
#
DISCID=ef0f3011
DTITLE=D. Landry and the Dirty Cajuns - Keep What's Left
DYEAR=1900
DGENRE=Rock
TTITLE0=Chicken Pot Pie
TTITLE1=GamBlin Shack
TTITLE2=7 Years
TTITLE3=Moe Brown
TTITLE4=Hounds of Hell
TTITLE5=Family Farm
TTITLE6=Hub City Blues
TTITLE7=Fortis
TTITLE8=Mid-South
TTITLE9=Carry My Cross
TTITLE10=Corner Store
TTITLE11=Bayouself
TTITLE12=Angola Rodeo
TTITLE13=Prison Grave
TTITLE14=Whiskey Shot
TTITLE15=Break of Day
TTITLE16=Moose Knuckle Breakdown
EXTD=
EXTT0=
EXTT1=
EXTT2=
EXTT3=
EXTT4=
EXTT5=
EXTT6=
EXTT7=
EXTT8=
EXTT9=
EXTT10=
EXTT11=
EXTT12=
EXTT13=
EXTT14=
EXTT15=
EXTT16=
PLAYORDER=
